solid OpenSCAD_Model
  facet normal -0.33948 0.762383 -0.550932
    outer loop
      vertex -14 14.743 -0.000499725
      vertex -14.618 15.9131 1.9995
      vertex -13.618 14.9131 -0.000499725
    endloop
  endfacet
  facet normal -0.33948 0.762383 -0.550932
    outer loop
      vertex -14.618 15.9131 1.9995
      vertex -14 14.743 -0.000499725
      vertex -15 15.743 1.9995
    endloop
  endfacet
  facet normal 0.406782 0.913525 -0
    outer loop
      vertex 15 15.743 1.9995
      vertex 14.618 15.9131 3.2005
      vertex 15 15.743 3.2005
    endloop
  endfacet
  facet normal 0.406782 0.913525 0
    outer loop
      vertex 14.618 15.9131 3.2005
      vertex 15 15.743 1.9995
      vertex 14.618 15.9131 1.9995
    endloop
  endfacet
  facet normal -0.894427 0 -0.447214
    outer loop
      vertex -15 -13.011 -0.000499725
      vertex -16 14.011 1.9995
      vertex -15 13.011 -0.000499725
    endloop
  endfacet
  facet normal -0.894427 -0 -0.447214
    outer loop
      vertex -16 14.011 1.9995
      vertex -15 -13.011 -0.000499725
      vertex -16 -14.011 1.9995
    endloop
  endfacet
  facet normal 0.20783 0.978165 -0
    outer loop
      vertex 14.618 15.9131 1.9995
      vertex 14.209 16 3.2005
      vertex 14.618 15.9131 3.2005
    endloop
  endfacet
  facet normal 0.20783 0.978165 0
    outer loop
      vertex 14.209 16 3.2005
      vertex 14.618 15.9131 1.9995
      vertex 14.209 16 1.9995
    endloop
  endfacet
  facet normal 0 1 -0
    outer loop
      vertex 14.209 16 1.9995
      vertex -14.209 16 3.2005
      vertex 14.209 16 3.2005
    endloop
  endfacet
  facet normal 0 1 0
    outer loop
      vertex -14.209 16 3.2005
      vertex 14.209 16 1.9995
      vertex -14.209 16 1.9995
    endloop
  endfacet
  facet normal 0.587645 0.809119 -0
    outer loop
      vertex 15.3383 15.4973 1.9995
      vertex 15 15.743 3.2005
      vertex 15.3383 15.4973 3.2005
    endloop
  endfacet
  facet normal 0.587645 0.809119 0
    outer loop
      vertex 15 15.743 3.2005
      vertex 15.3383 15.4973 1.9995
      vertex 15 15.743 1.9995
    endloop
  endfacet
  facet normal -0.20783 0.978165 0
    outer loop
      vertex -14.209 16 1.9995
      vertex -14.618 15.9131 3.2005
      vertex -14.209 16 3.2005
    endloop
  endfacet
  facet normal -0.20783 0.978165 0
    outer loop
      vertex -14.618 15.9131 3.2005
      vertex -14.209 16 1.9995
      vertex -14.618 15.9131 1.9995
    endloop
  endfacet
  facet normal -0.865982 0.500074 0
    outer loop
      vertex -15.8271 14.8244 1.9995
      vertex -15.618 15.1865 3.2005
      vertex -15.618 15.1865 1.9995
    endloop
  endfacet
  facet normal -0.865982 0.500074 0
    outer loop
      vertex -15.618 15.1865 3.2005
      vertex -15.8271 14.8244 1.9995
      vertex -15.8271 14.8244 3.2005
    endloop
  endfacet
  facet normal 0 0.894427 -0.447214
    outer loop
      vertex 13.209 15 -0.000499725
      vertex -14.209 16 1.9995
      vertex 14.209 16 1.9995
    endloop
  endfacet
  facet normal 0 0.894427 -0.447214
    outer loop
      vertex -14.209 16 1.9995
      vertex 13.209 15 -0.000499725
      vertex -13.209 15 -0.000499725
    endloop
  endfacet
  facet normal 0.743318 0.668938 0
    outer loop
      vertex 15.618 15.1865 3.2005
      vertex 15.3383 15.4973 1.9995
      vertex 15.3383 15.4973 3.2005
    endloop
  endfacet
  facet normal 0.743318 0.668938 0
    outer loop
      vertex 15.3383 15.4973 1.9995
      vertex 15.618 15.1865 3.2005
      vertex 15.618 15.1865 1.9995
    endloop
  endfacet
  facet normal -0.178763 0.841358 -0.51006
    outer loop
      vertex -13.618 14.9131 -0.000499725
      vertex -14.209 16 1.9995
      vertex -13.209 15 -0.000499725
    endloop
  endfacet
  facet normal -0.178763 0.841358 -0.51006
    outer loop
      vertex -14.209 16 1.9995
      vertex -13.618 14.9131 -0.000499725
      vertex -14.618 15.9131 1.9995
    endloop
  endfacet
  facet normal -0.406782 0.913525 0
    outer loop
      vertex -14.618 15.9131 1.9995
      vertex -15 15.743 3.2005
      vertex -14.618 15.9131 3.2005
    endloop
  endfacet
  facet normal -0.406782 0.913525 0
    outer loop
      vertex -15 15.743 3.2005
      vertex -14.618 15.9131 1.9995
      vertex -15 15.743 1.9995
    endloop
  endfacet
  facet normal 0 -1 0
    outer loop
      vertex -14.209 -16 1.9995
      vertex 14.209 -16 3.2005
      vertex -14.209 -16 3.2005
    endloop
  endfacet
  facet normal 0 -1 -0
    outer loop
      vertex 14.209 -16 3.2005
      vertex -14.209 -16 1.9995
      vertex 14.209 -16 1.9995
    endloop
  endfacet
  facet normal -0.743318 -0.668938 0
    outer loop
      vertex -15.3383 -15.4973 1.9995
      vertex -15.618 -15.1865 3.2005
      vertex -15.618 -15.1865 1.9995
    endloop
  endfacet
  facet normal -0.743318 -0.668938 0
    outer loop
      vertex -15.618 -15.1865 3.2005
      vertex -15.3383 -15.4973 1.9995
      vertex -15.3383 -15.4973 3.2005
    endloop
  endfacet
  facet normal -0 0 1
    outer loop
      vertex 15.2271 14.2244 3.2005
      vertex 16 14.011 3.2005
      vertex 15.9563 14.4268 3.2005
    endloop
  endfacet
  facet normal 0 0 1
    outer loop
      vertex 16 14.011 3.2005
      vertex 15.4 13.411 3.2005
      vertex 16 -14.011 3.2005
    endloop
  endfacet
  facet normal 0 0 1
    outer loop
      vertex 15.2271 14.2244 3.2005
      vertex 15.9563 14.4268 3.2005
      vertex 15.8271 14.8244 3.2005
    endloop
  endfacet
  facet normal -0 0 1
    outer loop
      vertex 15.4 -13.411 3.2005
      vertex 16 -14.011 3.2005
      vertex 15.4 13.411 3.2005
    endloop
  endfacet
  facet normal 0 0 1
    outer loop
      vertex 15.018 14.5865 3.2005
      vertex 15.8271 14.8244 3.2005
      vertex 15.618 15.1865 3.2005
    endloop
  endfacet
  facet normal -0 0 1
    outer loop
      vertex 15.3563 -13.8268 3.2005
      vertex 16 -14.011 3.2005
      vertex 15.4 -13.411 3.2005
    endloop
  endfacet
  facet normal 0 0 1
    outer loop
      vertex 15.2271 -14.2244 3.2005
      vertex 16 -14.011 3.2005
      vertex 15.3563 -13.8268 3.2005
    endloop
  endfacet
  facet normal 0 0 1
    outer loop
      vertex 16 14.011 3.2005
      vertex 15.3563 13.8268 3.2005
      vertex 15.4 13.411 3.2005
    endloop
  endfacet
  facet normal 0 0 1
    outer loop
      vertex 14.7383 14.8972 3.2005
      vertex 15.618 15.1865 3.2005
      vertex 15.3383 15.4973 3.2005
    endloop
  endfacet
  facet normal 0 0 1
    outer loop
      vertex 16 14.011 3.2005
      vertex 15.2271 14.2244 3.2005
      vertex 15.3563 13.8268 3.2005
    endloop
  endfacet
  facet normal 0 0 1
    outer loop
      vertex 15.8271 14.8244 3.2005
      vertex 15.018 14.5865 3.2005
      vertex 15.2271 14.2244 3.2005
    endloop
  endfacet
  facet normal 0 0 1
    outer loop
      vertex 14.7383 14.8972 3.2005
      vertex 15.3383 15.4973 3.2005
      vertex 15 15.743 3.2005
    endloop
  endfacet
  facet normal 0 0 1
    outer loop
      vertex 15.618 15.1865 3.2005
      vertex 14.7383 14.8972 3.2005
      vertex 15.018 14.5865 3.2005
    endloop
  endfacet
  facet normal 0 0 1
    outer loop
      vertex 14.4 15.143 3.2005
      vertex 15 15.743 3.2005
      vertex 14.618 15.9131 3.2005
    endloop
  endfacet
  facet normal 0 0 1
    outer loop
      vertex 15 15.743 3.2005
      vertex 14.4 15.143 3.2005
      vertex 14.7383 14.8972 3.2005
    endloop
  endfacet
  facet normal 0 0 1
    outer loop
      vertex 14.018 15.3131 3.2005
      vertex 14.618 15.9131 3.2005
      vertex 14.209 16 3.2005
    endloop
  endfacet
  facet normal 0 0 1
    outer loop
      vertex 14.618 15.9131 3.2005
      vertex 14.018 15.3131 3.2005
      vertex 14.4 15.143 3.2005
    endloop
  endfacet
  facet normal 0 0 1
    outer loop
      vertex 14.209 16 3.2005
      vertex 13.609 15.4 3.2005
      vertex 14.018 15.3131 3.2005
    endloop
  endfacet
  facet normal 0 0 1
    outer loop
      vertex 14.209 16 3.2005
      vertex -13.609 15.4 3.2005
      vertex 13.609 15.4 3.2005
    endloop
  endfacet
  facet normal -0 0 1
    outer loop
      vertex -14.209 16 3.2005
      vertex -13.609 15.4 3.2005
      vertex 14.209 16 3.2005
    endloop
  endfacet
  facet normal 0 0 1
    outer loop
      vertex -14.209 16 3.2005
      vertex -14.018 15.3131 3.2005
      vertex -13.609 15.4 3.2005
    endloop
  endfacet
  facet normal -0 0 1
    outer loop
      vertex -14.618 15.9131 3.2005
      vertex -14.018 15.3131 3.2005
      vertex -14.209 16 3.2005
    endloop
  endfacet
  facet normal 0 0 1
    outer loop
      vertex -14.018 15.3131 3.2005
      vertex -14.618 15.9131 3.2005
      vertex -14.4 15.143 3.2005
    endloop
  endfacet
  facet normal -0 0 1
    outer loop
      vertex -15 15.743 3.2005
      vertex -14.4 15.143 3.2005
      vertex -14.618 15.9131 3.2005
    endloop
  endfacet
  facet normal 0 0 1
    outer loop
      vertex -14.4 15.143 3.2005
      vertex -15 15.743 3.2005
      vertex -14.7383 14.8972 3.2005
    endloop
  endfacet
  facet normal -0 0 1
    outer loop
      vertex -15.3383 15.4973 3.2005
      vertex -14.7383 14.8972 3.2005
      vertex -15 15.743 3.2005
    endloop
  endfacet
  facet normal -0 0 1
    outer loop
      vertex -15.618 15.1865 3.2005
      vertex -14.7383 14.8972 3.2005
      vertex -15.3383 15.4973 3.2005
    endloop
  endfacet
  facet normal 0 0 1
    outer loop
      vertex -14.7383 14.8972 3.2005
      vertex -15.618 15.1865 3.2005
      vertex -15.018 14.5865 3.2005
    endloop
  endfacet
  facet normal -0 0 1
    outer loop
      vertex -15.8271 14.8244 3.2005
      vertex -15.018 14.5865 3.2005
      vertex -15.618 15.1865 3.2005
    endloop
  endfacet
  facet normal 0 0 1
    outer loop
      vertex -15.018 14.5865 3.2005
      vertex -15.8271 14.8244 3.2005
      vertex -15.2271 14.2244 3.2005
    endloop
  endfacet
  facet normal 0 0 1
    outer loop
      vertex -16 14.011 3.2005
      vertex -15.2271 14.2244 3.2005
      vertex -15.9563 14.4268 3.2005
    endloop
  endfacet
  facet normal -0 0 1
    outer loop
      vertex -15.9563 14.4268 3.2005
      vertex -15.2271 14.2244 3.2005
      vertex -15.8271 14.8244 3.2005
    endloop
  endfacet
  facet normal 0 0 1
    outer loop
      vertex 16 -14.011 3.2005
      vertex 15.2271 -14.2244 3.2005
      vertex 15.9563 -14.4268 3.2005
    endloop
  endfacet
  facet normal 0 0 1
    outer loop
      vertex 15.9563 -14.4268 3.2005
      vertex 15.2271 -14.2244 3.2005
      vertex 15.8271 -14.8244 3.2005
    endloop
  endfacet
  facet normal -0 0 1
    outer loop
      vertex 15.018 -14.5865 3.2005
      vertex 15.8271 -14.8244 3.2005
      vertex 15.2271 -14.2244 3.2005
    endloop
  endfacet
  facet normal 0 0 1
    outer loop
      vertex 15.8271 -14.8244 3.2005
      vertex 15.018 -14.5865 3.2005
      vertex 15.618 -15.1865 3.2005
    endloop
  endfacet
  facet normal -0 0 1
    outer loop
      vertex 14.7383 -14.8972 3.2005
      vertex 15.618 -15.1865 3.2005
      vertex 15.018 -14.5865 3.2005
    endloop
  endfacet
  facet normal 0 0 1
    outer loop
      vertex 15.618 -15.1865 3.2005
      vertex 14.7383 -14.8972 3.2005
      vertex 15.3383 -15.4973 3.2005
    endloop
  endfacet
  facet normal 0 0 1
    outer loop
      vertex 15.3383 -15.4973 3.2005
      vertex 14.7383 -14.8972 3.2005
      vertex 15 -15.743 3.2005
    endloop
  endfacet
  facet normal -0 0 1
    outer loop
      vertex 14.4 -15.143 3.2005
      vertex 15 -15.743 3.2005
      vertex 14.7383 -14.8972 3.2005
    endloop
  endfacet
  facet normal 0 0 1
    outer loop
      vertex 15 -15.743 3.2005
      vertex 14.4 -15.143 3.2005
      vertex 14.618 -15.9131 3.2005
    endloop
  endfacet
  facet normal -0 0 1
    outer loop
      vertex 14.018 -15.3131 3.2005
      vertex 14.618 -15.9131 3.2005
      vertex 14.4 -15.143 3.2005
    endloop
  endfacet
  facet normal 0 0 1
    outer loop
      vertex 14.618 -15.9131 3.2005
      vertex 14.018 -15.3131 3.2005
      vertex 14.209 -16 3.2005
    endloop
  endfacet
  facet normal -0 0 1
    outer loop
      vertex 13.609 -15.4 3.2005
      vertex 14.209 -16 3.2005
      vertex 14.018 -15.3131 3.2005
    endloop
  endfacet
  facet normal -0 0 1
    outer loop
      vertex -13.609 -15.4 3.2005
      vertex 14.209 -16 3.2005
      vertex 13.609 -15.4 3.2005
    endloop
  endfacet
  facet normal 0 0 1
    outer loop
      vertex -13.609 -15.4 3.2005
      vertex -14.209 -16 3.2005
      vertex 14.209 -16 3.2005
    endloop
  endfacet
  facet normal 0 0 1
    outer loop
      vertex -14.018 -15.3131 3.2005
      vertex -14.209 -16 3.2005
      vertex -13.609 -15.4 3.2005
    endloop
  endfacet
  facet normal 0 0 1
    outer loop
      vertex -14.618 -15.9131 3.2005
      vertex -14.018 -15.3131 3.2005
      vertex -14.4 -15.143 3.2005
    endloop
  endfacet
  facet normal 0 0 1
    outer loop
      vertex -14.018 -15.3131 3.2005
      vertex -14.618 -15.9131 3.2005
      vertex -14.209 -16 3.2005
    endloop
  endfacet
  facet normal 0 0 1
    outer loop
      vertex -15 -15.743 3.2005
      vertex -14.4 -15.143 3.2005
      vertex -14.7383 -14.8972 3.2005
    endloop
  endfacet
  facet normal 0 0 1
    outer loop
      vertex -14.4 -15.143 3.2005
      vertex -15 -15.743 3.2005
      vertex -14.618 -15.9131 3.2005
    endloop
  endfacet
  facet normal 0 0 1
    outer loop
      vertex -15.618 -15.1865 3.2005
      vertex -14.7383 -14.8972 3.2005
      vertex -15.018 -14.5865 3.2005
    endloop
  endfacet
  facet normal 0 0 1
    outer loop
      vertex -15.8271 -14.8244 3.2005
      vertex -15.018 -14.5865 3.2005
      vertex -15.2271 -14.2244 3.2005
    endloop
  endfacet
  facet normal 0 0 1
    outer loop
      vertex -14.7383 -14.8972 3.2005
      vertex -15.3383 -15.4973 3.2005
      vertex -15 -15.743 3.2005
    endloop
  endfacet
  facet normal -0 0 1
    outer loop
      vertex -16 -14.011 3.2005
      vertex -15.2271 -14.2244 3.2005
      vertex -15.3563 -13.8268 3.2005
    endloop
  endfacet
  facet normal 0 0 1
    outer loop
      vertex -16 -14.011 3.2005
      vertex -15.3563 -13.8268 3.2005
      vertex -15.4 -13.411 3.2005
    endloop
  endfacet
  facet normal 0 0 1
    outer loop
      vertex -14.7383 -14.8972 3.2005
      vertex -15.618 -15.1865 3.2005
      vertex -15.3383 -15.4973 3.2005
    endloop
  endfacet
  facet normal 0 0 1
    outer loop
      vertex -15.4 13.411 3.2005
      vertex -16 14.011 3.2005
      vertex -15.4 -13.411 3.2005
    endloop
  endfacet
  facet normal 0 0 1
    outer loop
      vertex -15.2271 14.2244 3.2005
      vertex -16 14.011 3.2005
      vertex -15.3563 13.8268 3.2005
    endloop
  endfacet
  facet normal 0 0 1
    outer loop
      vertex -16 -14.011 3.2005
      vertex -15.4 -13.411 3.2005
      vertex -16 14.011 3.2005
    endloop
  endfacet
  facet normal 0 0 1
    outer loop
      vertex -15.3563 13.8268 3.2005
      vertex -16 14.011 3.2005
      vertex -15.4 13.411 3.2005
    endloop
  endfacet
  facet normal 0 0 1
    outer loop
      vertex -15.2271 -14.2244 3.2005
      vertex -16 -14.011 3.2005
      vertex -15.9563 -14.4268 3.2005
    endloop
  endfacet
  facet normal 0 0 1
    outer loop
      vertex -15.018 -14.5865 3.2005
      vertex -15.8271 -14.8244 3.2005
      vertex -15.618 -15.1865 3.2005
    endloop
  endfacet
  facet normal 0 0 1
    outer loop
      vertex -15.2271 -14.2244 3.2005
      vertex -15.9563 -14.4268 3.2005
      vertex -15.8271 -14.8244 3.2005
    endloop
  endfacet
  facet normal -0.607197 0.546438 -0.576817
    outer loop
      vertex -14.3383 14.4973 -0.000499725
      vertex -15.618 15.1865 1.9995
      vertex -15.3383 15.4973 1.9995
    endloop
  endfacet
  facet normal -0.607197 0.546438 -0.576817
    outer loop
      vertex -15.618 15.1865 1.9995
      vertex -14.3383 14.4973 -0.000499725
      vertex -14.618 14.1865 -0.000499725
    endloop
  endfacet
  facet normal 0 -0.894427 -0.447214
    outer loop
      vertex -13.209 -15 -0.000499725
      vertex 14.209 -16 1.9995
      vertex -14.209 -16 1.9995
    endloop
  endfacet
  facet normal 0 -0.894427 -0.447214
    outer loop
      vertex 14.209 -16 1.9995
      vertex -13.209 -15 -0.000499725
      vertex 13.209 -15 -0.000499725
    endloop
  endfacet
  facet normal -0.587645 -0.809119 0
    outer loop
      vertex -15.3383 -15.4973 1.9995
      vertex -15 -15.743 3.2005
      vertex -15.3383 -15.4973 3.2005
    endloop
  endfacet
  facet normal -0.587645 -0.809119 -0
    outer loop
      vertex -15 -15.743 3.2005
      vertex -15.3383 -15.4973 1.9995
      vertex -15 -15.743 1.9995
    endloop
  endfacet
  facet normal 0.894427 0 -0.447214
    outer loop
      vertex 16 14.011 1.9995
      vertex 15 -13.011 -0.000499725
      vertex 15 13.011 -0.000499725
    endloop
  endfacet
  facet normal 0.894427 0 -0.447214
    outer loop
      vertex 15 -13.011 -0.000499725
      vertex 16 14.011 1.9995
      vertex 16 -14.011 1.9995
    endloop
  endfacet
  facet normal 1 -0 0
    outer loop
      vertex 16 -14.011 3.2005
      vertex 16 14.011 1.9995
      vertex 16 14.011 3.2005
    endloop
  endfacet
  facet normal 1 0 0
    outer loop
      vertex 16 14.011 1.9995
      vertex 16 -14.011 3.2005
      vertex 16 -14.011 1.9995
    endloop
  endfacet
  facet normal -1 0 0
    outer loop
      vertex -16 -14.011 1.9995
      vertex -16 14.011 3.2005
      vertex -16 14.011 1.9995
    endloop
  endfacet
  facet normal -1 -0 0
    outer loop
      vertex -16 14.011 3.2005
      vertex -16 -14.011 1.9995
      vertex -16 -14.011 3.2005
    endloop
  endfacet
  facet normal -0.743318 0.668938 0
    outer loop
      vertex -15.618 15.1865 1.9995
      vertex -15.3383 15.4973 3.2005
      vertex -15.3383 15.4973 1.9995
    endloop
  endfacet
  facet normal -0.743318 0.668938 0
    outer loop
      vertex -15.3383 15.4973 3.2005
      vertex -15.618 15.1865 1.9995
      vertex -15.618 15.1865 3.2005
    endloop
  endfacet
  facet normal -0.587645 0.809119 0
    outer loop
      vertex -15 15.743 1.9995
      vertex -15.3383 15.4973 3.2005
      vertex -15 15.743 3.2005
    endloop
  endfacet
  facet normal -0.587645 0.809119 0
    outer loop
      vertex -15.3383 15.4973 3.2005
      vertex -15 15.743 1.9995
      vertex -15.3383 15.4973 1.9995
    endloop
  endfacet
  facet normal 0.865982 0.500074 0
    outer loop
      vertex 15.8271 14.8244 3.2005
      vertex 15.618 15.1865 1.9995
      vertex 15.618 15.1865 3.2005
    endloop
  endfacet
  facet normal 0.865982 0.500074 0
    outer loop
      vertex 15.618 15.1865 1.9995
      vertex 15.8271 14.8244 3.2005
      vertex 15.8271 14.8244 1.9995
    endloop
  endfacet
  facet normal -0.20783 -0.978165 0
    outer loop
      vertex -14.618 -15.9131 1.9995
      vertex -14.209 -16 3.2005
      vertex -14.618 -15.9131 3.2005
    endloop
  endfacet
  facet normal -0.20783 -0.978165 -0
    outer loop
      vertex -14.209 -16 3.2005
      vertex -14.618 -15.9131 1.9995
      vertex -14.209 -16 1.9995
    endloop
  endfacet
  facet normal -0.406782 -0.913525 0
    outer loop
      vertex -15 -15.743 1.9995
      vertex -14.618 -15.9131 3.2005
      vertex -15 -15.743 3.2005
    endloop
  endfacet
  facet normal -0.406782 -0.913525 -0
    outer loop
      vertex -14.618 -15.9131 3.2005
      vertex -15 -15.743 1.9995
      vertex -14.618 -15.9131 1.9995
    endloop
  endfacet
  facet normal -0.865982 -0.500074 0
    outer loop
      vertex -15.618 -15.1865 1.9995
      vertex -15.8271 -14.8244 3.2005
      vertex -15.8271 -14.8244 1.9995
    endloop
  endfacet
  facet normal -0.865982 -0.500074 0
    outer loop
      vertex -15.8271 -14.8244 3.2005
      vertex -15.618 -15.1865 1.9995
      vertex -15.618 -15.1865 3.2005
    endloop
  endfacet
  facet normal 0 0 -1
    outer loop
      vertex 14.5 -13.5055 -0.000499725
      vertex 15 -13.011 -0.000499725
      vertex 14.9563 -13.4268 -0.000499725
    endloop
  endfacet
  facet normal -0 0 -1
    outer loop
      vertex 15 -13.011 -0.000499725
      vertex 14.5 -13.5055 -0.000499725
      vertex 15 13.011 -0.000499725
    endloop
  endfacet
  facet normal 0 0 -1
    outer loop
      vertex 14.5 -13.5055 -0.000499725
      vertex 14.9563 -13.4268 -0.000499725
      vertex 14.8271 -13.8244 -0.000499725
    endloop
  endfacet
  facet normal 0 0 -1
    outer loop
      vertex 14.5 13.5055 -0.000499725
      vertex 15 13.011 -0.000499725
      vertex 14.5 -13.5055 -0.000499725
    endloop
  endfacet
  facet normal 0 0 -1
    outer loop
      vertex 14.4135 -13.9122 -0.000499725
      vertex 14.8271 -13.8244 -0.000499725
      vertex 14.618 -14.1865 -0.000499725
    endloop
  endfacet
  facet normal 0 0 -1
    outer loop
      vertex 15 13.011 -0.000499725
      vertex 14.5 13.5055 -0.000499725
      vertex 14.9563 13.4268 -0.000499725
    endloop
  endfacet
  facet normal 0 0 -1
    outer loop
      vertex 14.9563 13.4268 -0.000499725
      vertex 14.5 13.5055 -0.000499725
      vertex 14.8271 13.8244 -0.000499725
    endloop
  endfacet
  facet normal 0 0 -1
    outer loop
      vertex 14.8271 -13.8244 -0.000499725
      vertex 14.4781 -13.7134 -0.000499725
      vertex 14.5 -13.5055 -0.000499725
    endloop
  endfacet
  facet normal -0 0 -1
    outer loop
      vertex 14.8271 -13.8244 -0.000499725
      vertex 14.4135 -13.9122 -0.000499725
      vertex 14.4781 -13.7134 -0.000499725
    endloop
  endfacet
  facet normal 0 0 -1
    outer loop
      vertex 14.309 -14.0933 -0.000499725
      vertex 14.618 -14.1865 -0.000499725
      vertex 14.3383 -14.4973 -0.000499725
    endloop
  endfacet
  facet normal 0 0 -1
    outer loop
      vertex 14.618 -14.1865 -0.000499725
      vertex 14.309 -14.0933 -0.000499725
      vertex 14.4135 -13.9122 -0.000499725
    endloop
  endfacet
  facet normal 0 0 -1
    outer loop
      vertex 14.3383 -14.4973 -0.000499725
      vertex 14.1691 -14.2486 -0.000499725
      vertex 14.309 -14.0933 -0.000499725
    endloop
  endfacet
  facet normal 0 0 -1
    outer loop
      vertex 14 -14.3715 -0.000499725
      vertex 14.3383 -14.4973 -0.000499725
      vertex 14 -14.743 -0.000499725
    endloop
  endfacet
  facet normal 0 0 -1
    outer loop
      vertex 14.3383 -14.4973 -0.000499725
      vertex 14 -14.3715 -0.000499725
      vertex 14.1691 -14.2486 -0.000499725
    endloop
  endfacet
  facet normal 0 0 -1
    outer loop
      vertex 14 -14.743 -0.000499725
      vertex 13.809 -14.4565 -0.000499725
      vertex 14 -14.3715 -0.000499725
    endloop
  endfacet
  facet normal 0 0 -1
    outer loop
      vertex 13.618 -14.9131 -0.000499725
      vertex 13.809 -14.4565 -0.000499725
      vertex 14 -14.743 -0.000499725
    endloop
  endfacet
  facet normal 0 0 -1
    outer loop
      vertex 13.618 -14.9131 -0.000499725
      vertex 13.6045 -14.5 -0.000499725
      vertex 13.809 -14.4565 -0.000499725
    endloop
  endfacet
  facet normal 0 0 -1
    outer loop
      vertex 13.209 -15 -0.000499725
      vertex 13.6045 -14.5 -0.000499725
      vertex 13.618 -14.9131 -0.000499725
    endloop
  endfacet
  facet normal 0 0 -1
    outer loop
      vertex -13.209 -15 -0.000499725
      vertex 13.6045 -14.5 -0.000499725
      vertex 13.209 -15 -0.000499725
    endloop
  endfacet
  facet normal 0 0 -1
    outer loop
      vertex -13.209 -15 -0.000499725
      vertex -13.6045 -14.5 -0.000499725
      vertex 13.6045 -14.5 -0.000499725
    endloop
  endfacet
  facet normal 0 0 -1
    outer loop
      vertex -13.618 -14.9131 -0.000499725
      vertex -13.6045 -14.5 -0.000499725
      vertex -13.209 -15 -0.000499725
    endloop
  endfacet
  facet normal 0 0 -1
    outer loop
      vertex -13.618 -14.9131 -0.000499725
      vertex -13.809 -14.4565 -0.000499725
      vertex -13.6045 -14.5 -0.000499725
    endloop
  endfacet
  facet normal 0 0 -1
    outer loop
      vertex -14 -14.743 -0.000499725
      vertex -13.809 -14.4565 -0.000499725
      vertex -13.618 -14.9131 -0.000499725
    endloop
  endfacet
  facet normal 0 0 -1
    outer loop
      vertex -14 -14.743 -0.000499725
      vertex -14 -14.3715 -0.000499725
      vertex -13.809 -14.4565 -0.000499725
    endloop
  endfacet
  facet normal 0 0 -1
    outer loop
      vertex -14.3383 -14.4973 -0.000499725
      vertex -14 -14.3715 -0.000499725
      vertex -14 -14.743 -0.000499725
    endloop
  endfacet
  facet normal -0 0 -1
    outer loop
      vertex -14 -14.3715 -0.000499725
      vertex -14.3383 -14.4973 -0.000499725
      vertex -14.1691 -14.2486 -0.000499725
    endloop
  endfacet
  facet normal -0 0 -1
    outer loop
      vertex -14.1691 -14.2486 -0.000499725
      vertex -14.3383 -14.4973 -0.000499725
      vertex -14.309 -14.0933 -0.000499725
    endloop
  endfacet
  facet normal 0 0 -1
    outer loop
      vertex -14.618 -14.1865 -0.000499725
      vertex -14.309 -14.0933 -0.000499725
      vertex -14.3383 -14.4973 -0.000499725
    endloop
  endfacet
  facet normal -0 0 -1
    outer loop
      vertex -14.309 -14.0933 -0.000499725
      vertex -14.618 -14.1865 -0.000499725
      vertex -14.4135 -13.9122 -0.000499725
    endloop
  endfacet
  facet normal -0 0 -1
    outer loop
      vertex -14.4781 -13.7134 -0.000499725
      vertex -14.8271 -13.8244 -0.000499725
      vertex -14.5 -13.5055 -0.000499725
    endloop
  endfacet
  facet normal 0 0 -1
    outer loop
      vertex -14.4135 -13.9122 -0.000499725
      vertex -14.8271 -13.8244 -0.000499725
      vertex -14.4781 -13.7134 -0.000499725
    endloop
  endfacet
  facet normal 0 0 -1
    outer loop
      vertex -14.8271 -13.8244 -0.000499725
      vertex -14.4135 -13.9122 -0.000499725
      vertex -14.618 -14.1865 -0.000499725
    endloop
  endfacet
  facet normal 0 0 -1
    outer loop
      vertex 14.4781 13.7134 -0.000499725
      vertex 14.8271 13.8244 -0.000499725
      vertex 14.5 13.5055 -0.000499725
    endloop
  endfacet
  facet normal 0 0 -1
    outer loop
      vertex 14.4135 13.9122 -0.000499725
      vertex 14.8271 13.8244 -0.000499725
      vertex 14.4781 13.7134 -0.000499725
    endloop
  endfacet
  facet normal 0 0 -1
    outer loop
      vertex 14.8271 13.8244 -0.000499725
      vertex 14.4135 13.9122 -0.000499725
      vertex 14.618 14.1865 -0.000499725
    endloop
  endfacet
  facet normal 0 0 -1
    outer loop
      vertex 14.309 14.0933 -0.000499725
      vertex 14.618 14.1865 -0.000499725
      vertex 14.4135 13.9122 -0.000499725
    endloop
  endfacet
  facet normal -0 0 -1
    outer loop
      vertex 14.618 14.1865 -0.000499725
      vertex 14.309 14.0933 -0.000499725
      vertex 14.3383 14.4973 -0.000499725
    endloop
  endfacet
  facet normal 0 0 -1
    outer loop
      vertex 14.1691 14.2486 -0.000499725
      vertex 14.3383 14.4973 -0.000499725
      vertex 14.309 14.0933 -0.000499725
    endloop
  endfacet
  facet normal 0 0 -1
    outer loop
      vertex 14 14.3715 -0.000499725
      vertex 14.3383 14.4973 -0.000499725
      vertex 14.1691 14.2486 -0.000499725
    endloop
  endfacet
  facet normal 0 0 -1
    outer loop
      vertex 14 14.3715 -0.000499725
      vertex 14 14.743 -0.000499725
      vertex 14.3383 14.4973 -0.000499725
    endloop
  endfacet
  facet normal 0 0 -1
    outer loop
      vertex 13.809 14.4565 -0.000499725
      vertex 14 14.743 -0.000499725
      vertex 14 14.3715 -0.000499725
    endloop
  endfacet
  facet normal 0 0 -1
    outer loop
      vertex 13.809 14.4565 -0.000499725
      vertex 13.618 14.9131 -0.000499725
      vertex 14 14.743 -0.000499725
    endloop
  endfacet
  facet normal 0 0 -1
    outer loop
      vertex 13.6045 14.5 -0.000499725
      vertex 13.618 14.9131 -0.000499725
      vertex 13.809 14.4565 -0.000499725
    endloop
  endfacet
  facet normal 0 0 -1
    outer loop
      vertex 13.6045 14.5 -0.000499725
      vertex 13.209 15 -0.000499725
      vertex 13.618 14.9131 -0.000499725
    endloop
  endfacet
  facet normal 0 0 -1
    outer loop
      vertex 13.6045 14.5 -0.000499725
      vertex -13.209 15 -0.000499725
      vertex 13.209 15 -0.000499725
    endloop
  endfacet
  facet normal 0 0 -1
    outer loop
      vertex -13.6045 14.5 -0.000499725
      vertex -13.209 15 -0.000499725
      vertex 13.6045 14.5 -0.000499725
    endloop
  endfacet
  facet normal 0 0 -1
    outer loop
      vertex -13.6045 14.5 -0.000499725
      vertex -13.618 14.9131 -0.000499725
      vertex -13.209 15 -0.000499725
    endloop
  endfacet
  facet normal 0 0 -1
    outer loop
      vertex -13.809 14.4565 -0.000499725
      vertex -13.618 14.9131 -0.000499725
      vertex -13.6045 14.5 -0.000499725
    endloop
  endfacet
  facet normal 0 0 -1
    outer loop
      vertex -14 14.743 -0.000499725
      vertex -13.809 14.4565 -0.000499725
      vertex -14 14.3715 -0.000499725
    endloop
  endfacet
  facet normal 0 0 -1
    outer loop
      vertex -13.809 14.4565 -0.000499725
      vertex -14 14.743 -0.000499725
      vertex -13.618 14.9131 -0.000499725
    endloop
  endfacet
  facet normal 0 0 -1
    outer loop
      vertex -14.3383 14.4973 -0.000499725
      vertex -14 14.3715 -0.000499725
      vertex -14.1691 14.2486 -0.000499725
    endloop
  endfacet
  facet normal 0 0 -1
    outer loop
      vertex -14.3383 14.4973 -0.000499725
      vertex -14.1691 14.2486 -0.000499725
      vertex -14.309 14.0933 -0.000499725
    endloop
  endfacet
  facet normal 0 0 -1
    outer loop
      vertex -14 14.3715 -0.000499725
      vertex -14.3383 14.4973 -0.000499725
      vertex -14 14.743 -0.000499725
    endloop
  endfacet
  facet normal 0 0 -1
    outer loop
      vertex -14.618 14.1865 -0.000499725
      vertex -14.309 14.0933 -0.000499725
      vertex -14.4135 13.9122 -0.000499725
    endloop
  endfacet
  facet normal 0 0 -1
    outer loop
      vertex -14.8271 13.8244 -0.000499725
      vertex -14.4135 13.9122 -0.000499725
      vertex -14.4781 13.7134 -0.000499725
    endloop
  endfacet
  facet normal 0 0 -1
    outer loop
      vertex -14.309 14.0933 -0.000499725
      vertex -14.618 14.1865 -0.000499725
      vertex -14.3383 14.4973 -0.000499725
    endloop
  endfacet
  facet normal 0 0 -1
    outer loop
      vertex -14.8271 13.8244 -0.000499725
      vertex -14.4781 13.7134 -0.000499725
      vertex -14.5 13.5055 -0.000499725
    endloop
  endfacet
  facet normal 0 0 -1
    outer loop
      vertex -14.5 -13.5055 -0.000499725
      vertex -15 -13.011 -0.000499725
      vertex -14.5 13.5055 -0.000499725
    endloop
  endfacet
  facet normal 0 0 -1
    outer loop
      vertex -14.9563 -13.4268 -0.000499725
      vertex -14.5 -13.5055 -0.000499725
      vertex -14.8271 -13.8244 -0.000499725
    endloop
  endfacet
  facet normal 0 0 -1
    outer loop
      vertex -15 13.011 -0.000499725
      vertex -14.5 13.5055 -0.000499725
      vertex -15 -13.011 -0.000499725
    endloop
  endfacet
  facet normal 0 0 -1
    outer loop
      vertex -14.5 -13.5055 -0.000499725
      vertex -14.9563 -13.4268 -0.000499725
      vertex -15 -13.011 -0.000499725
    endloop
  endfacet
  facet normal 0 -0 -1
    outer loop
      vertex -14.9563 13.4268 -0.000499725
      vertex -14.5 13.5055 -0.000499725
      vertex -15 13.011 -0.000499725
    endloop
  endfacet
  facet normal -0 0 -1
    outer loop
      vertex -14.4135 13.9122 -0.000499725
      vertex -14.8271 13.8244 -0.000499725
      vertex -14.618 14.1865 -0.000499725
    endloop
  endfacet
  facet normal -0 0 -1
    outer loop
      vertex -14.5 13.5055 -0.000499725
      vertex -14.9563 13.4268 -0.000499725
      vertex -14.8271 13.8244 -0.000499725
    endloop
  endfacet
  facet normal -0.951048 0.309043 0
    outer loop
      vertex -15.9563 14.4268 1.9995
      vertex -15.8271 14.8244 3.2005
      vertex -15.8271 14.8244 1.9995
    endloop
  endfacet
  facet normal -0.951048 0.309043 0
    outer loop
      vertex -15.8271 14.8244 3.2005
      vertex -15.9563 14.4268 1.9995
      vertex -15.9563 14.4268 3.2005
    endloop
  endfacet
  facet normal 0.804657 0.261473 -0.533065
    outer loop
      vertex 15.9563 14.4268 1.9995
      vertex 14.8271 13.8244 -0.000499725
      vertex 15.8271 14.8244 1.9995
    endloop
  endfacet
  facet normal 0.804657 0.261473 -0.533065
    outer loop
      vertex 14.8271 13.8244 -0.000499725
      vertex 15.9563 14.4268 1.9995
      vertex 14.9563 13.4268 -0.000499725
    endloop
  endfacet
  facet normal 0.951048 0.309043 0
    outer loop
      vertex 15.9563 14.4268 3.2005
      vertex 15.8271 14.8244 1.9995
      vertex 15.8271 14.8244 3.2005
    endloop
  endfacet
  facet normal 0.951048 0.309043 0
    outer loop
      vertex 15.8271 14.8244 1.9995
      vertex 15.9563 14.4268 3.2005
      vertex 15.9563 14.4268 1.9995
    endloop
  endfacet
  facet normal 0.994522 0.104523 0
    outer loop
      vertex 16 14.011 3.2005
      vertex 15.9563 14.4268 1.9995
      vertex 15.9563 14.4268 3.2005
    endloop
  endfacet
  facet normal 0.994522 0.104523 0
    outer loop
      vertex 15.9563 14.4268 1.9995
      vertex 16 14.011 3.2005
      vertex 16 14.011 1.9995
    endloop
  endfacet
  facet normal 0.865982 -0.500074 0
    outer loop
      vertex 15.618 -15.1865 3.2005
      vertex 15.8271 -14.8244 1.9995
      vertex 15.8271 -14.8244 3.2005
    endloop
  endfacet
  facet normal 0.865982 -0.500074 0
    outer loop
      vertex 15.8271 -14.8244 1.9995
      vertex 15.618 -15.1865 3.2005
      vertex 15.618 -15.1865 1.9995
    endloop
  endfacet
  facet normal 0.951048 -0.309043 0
    outer loop
      vertex 15.8271 -14.8244 3.2005
      vertex 15.9563 -14.4268 1.9995
      vertex 15.9563 -14.4268 3.2005
    endloop
  endfacet
  facet normal 0.951048 -0.309043 0
    outer loop
      vertex 15.9563 -14.4268 1.9995
      vertex 15.8271 -14.8244 3.2005
      vertex 15.8271 -14.8244 1.9995
    endloop
  endfacet
  facet normal -0.715095 -0.412942 -0.564019
    outer loop
      vertex -14.618 -14.1865 -0.000499725
      vertex -15.8271 -14.8244 1.9995
      vertex -14.8271 -13.8244 -0.000499725
    endloop
  endfacet
  facet normal -0.715095 -0.412942 -0.564019
    outer loop
      vertex -15.8271 -14.8244 1.9995
      vertex -14.618 -14.1865 -0.000499725
      vertex -15.618 -15.1865 1.9995
    endloop
  endfacet
  facet normal 0.178763 -0.841358 -0.51006
    outer loop
      vertex 13.618 -14.9131 -0.000499725
      vertex 14.209 -16 1.9995
      vertex 13.209 -15 -0.000499725
    endloop
  endfacet
  facet normal 0.178763 -0.841358 -0.51006
    outer loop
      vertex 14.209 -16 1.9995
      vertex 13.618 -14.9131 -0.000499725
      vertex 14.618 -15.9131 1.9995
    endloop
  endfacet
  facet normal 0.20783 -0.978165 0
    outer loop
      vertex 14.209 -16 1.9995
      vertex 14.618 -15.9131 3.2005
      vertex 14.209 -16 3.2005
    endloop
  endfacet
  facet normal 0.20783 -0.978165 0
    outer loop
      vertex 14.618 -15.9131 3.2005
      vertex 14.209 -16 1.9995
      vertex 14.618 -15.9131 1.9995
    endloop
  endfacet
  facet normal -0.994522 -0.104523 0
    outer loop
      vertex -15.9563 -14.4268 1.9995
      vertex -16 -14.011 3.2005
      vertex -16 -14.011 1.9995
    endloop
  endfacet
  facet normal -0.994522 -0.104523 0
    outer loop
      vertex -16 -14.011 3.2005
      vertex -15.9563 -14.4268 1.9995
      vertex -15.9563 -14.4268 3.2005
    endloop
  endfacet
  facet normal -0.804657 -0.261473 -0.533065
    outer loop
      vertex -14.8271 -13.8244 -0.000499725
      vertex -15.9563 -14.4268 1.9995
      vertex -14.9563 -13.4268 -0.000499725
    endloop
  endfacet
  facet normal -0.804657 -0.261473 -0.533065
    outer loop
      vertex -15.9563 -14.4268 1.9995
      vertex -14.8271 -13.8244 -0.000499725
      vertex -15.8271 -14.8244 1.9995
    endloop
  endfacet
  facet normal -0.871592 -0.0916031 -0.481598
    outer loop
      vertex -14.9563 -13.4268 -0.000499725
      vertex -16 -14.011 1.9995
      vertex -15 -13.011 -0.000499725
    endloop
  endfacet
  facet normal -0.871592 -0.0916031 -0.481598
    outer loop
      vertex -16 -14.011 1.9995
      vertex -14.9563 -13.4268 -0.000499725
      vertex -15.9563 -14.4268 1.9995
    endloop
  endfacet
  facet normal -0.715095 0.412942 -0.564019
    outer loop
      vertex -14.618 14.1865 -0.000499725
      vertex -15.8271 14.8244 1.9995
      vertex -15.618 15.1865 1.9995
    endloop
  endfacet
  facet normal -0.715095 0.412942 -0.564019
    outer loop
      vertex -15.8271 14.8244 1.9995
      vertex -14.618 14.1865 -0.000499725
      vertex -14.8271 13.8244 -0.000499725
    endloop
  endfacet
  facet normal 0.481784 0.66336 -0.572572
    outer loop
      vertex 14.3383 14.4973 -0.000499725
      vertex 15 15.743 1.9995
      vertex 15.3383 15.4973 1.9995
    endloop
  endfacet
  facet normal 0.481784 0.66336 -0.572572
    outer loop
      vertex 15 15.743 1.9995
      vertex 14.3383 14.4973 -0.000499725
      vertex 14 14.743 -0.000499725
    endloop
  endfacet
  facet normal 0.871592 0.0916031 -0.481598
    outer loop
      vertex 16 14.011 1.9995
      vertex 14.9563 13.4268 -0.000499725
      vertex 15.9563 14.4268 1.9995
    endloop
  endfacet
  facet normal 0.871592 0.0916031 -0.481598
    outer loop
      vertex 14.9563 13.4268 -0.000499725
      vertex 16 14.011 1.9995
      vertex 15 13.011 -0.000499725
    endloop
  endfacet
  facet normal 0.715095 -0.412942 -0.564019
    outer loop
      vertex 15.8271 -14.8244 1.9995
      vertex 14.618 -14.1865 -0.000499725
      vertex 14.8271 -13.8244 -0.000499725
    endloop
  endfacet
  facet normal 0.715095 -0.412942 -0.564019
    outer loop
      vertex 14.618 -14.1865 -0.000499725
      vertex 15.8271 -14.8244 1.9995
      vertex 15.618 -15.1865 1.9995
    endloop
  endfacet
  facet normal 0.994522 -0.104523 0
    outer loop
      vertex 15.9563 -14.4268 3.2005
      vertex 16 -14.011 1.9995
      vertex 16 -14.011 3.2005
    endloop
  endfacet
  facet normal 0.994522 -0.104523 0
    outer loop
      vertex 16 -14.011 1.9995
      vertex 15.9563 -14.4268 3.2005
      vertex 15.9563 -14.4268 1.9995
    endloop
  endfacet
  facet normal 0.743318 -0.668938 0
    outer loop
      vertex 15.3383 -15.4973 3.2005
      vertex 15.618 -15.1865 1.9995
      vertex 15.618 -15.1865 3.2005
    endloop
  endfacet
  facet normal 0.743318 -0.668938 0
    outer loop
      vertex 15.618 -15.1865 1.9995
      vertex 15.3383 -15.4973 3.2005
      vertex 15.3383 -15.4973 1.9995
    endloop
  endfacet
  facet normal -0.178763 -0.841358 -0.51006
    outer loop
      vertex -13.618 -14.9131 -0.000499725
      vertex -14.209 -16 1.9995
      vertex -14.618 -15.9131 1.9995
    endloop
  endfacet
  facet normal -0.178763 -0.841358 -0.51006
    outer loop
      vertex -14.209 -16 1.9995
      vertex -13.618 -14.9131 -0.000499725
      vertex -13.209 -15 -0.000499725
    endloop
  endfacet
  facet normal -0.33948 -0.762383 -0.550932
    outer loop
      vertex -14 -14.743 -0.000499725
      vertex -14.618 -15.9131 1.9995
      vertex -15 -15.743 1.9995
    endloop
  endfacet
  facet normal -0.33948 -0.762383 -0.550932
    outer loop
      vertex -14.618 -15.9131 1.9995
      vertex -14 -14.743 -0.000499725
      vertex -13.618 -14.9131 -0.000499725
    endloop
  endfacet
  facet normal -0.481784 -0.66336 -0.572572
    outer loop
      vertex -14.3383 -14.4973 -0.000499725
      vertex -15 -15.743 1.9995
      vertex -15.3383 -15.4973 1.9995
    endloop
  endfacet
  facet normal -0.481784 -0.66336 -0.572572
    outer loop
      vertex -15 -15.743 1.9995
      vertex -14.3383 -14.4973 -0.000499725
      vertex -14 -14.743 -0.000499725
    endloop
  endfacet
  facet normal -0.994522 0.104523 0
    outer loop
      vertex -16 14.011 1.9995
      vertex -15.9563 14.4268 3.2005
      vertex -15.9563 14.4268 1.9995
    endloop
  endfacet
  facet normal -0.994522 0.104523 0
    outer loop
      vertex -15.9563 14.4268 3.2005
      vertex -16 14.011 1.9995
      vertex -16 14.011 3.2005
    endloop
  endfacet
  facet normal -0.607197 -0.546438 -0.576817
    outer loop
      vertex -14.3383 -14.4973 -0.000499725
      vertex -15.618 -15.1865 1.9995
      vertex -14.618 -14.1865 -0.000499725
    endloop
  endfacet
  facet normal -0.607197 -0.546438 -0.576817
    outer loop
      vertex -15.618 -15.1865 1.9995
      vertex -14.3383 -14.4973 -0.000499725
      vertex -15.3383 -15.4973 1.9995
    endloop
  endfacet
  facet normal -0.951048 -0.309043 0
    outer loop
      vertex -15.8271 -14.8244 1.9995
      vertex -15.9563 -14.4268 3.2005
      vertex -15.9563 -14.4268 1.9995
    endloop
  endfacet
  facet normal -0.951048 -0.309043 0
    outer loop
      vertex -15.9563 -14.4268 3.2005
      vertex -15.8271 -14.8244 1.9995
      vertex -15.8271 -14.8244 3.2005
    endloop
  endfacet
  facet normal -0.481784 0.66336 -0.572572
    outer loop
      vertex -14.3383 14.4973 -0.000499725
      vertex -15 15.743 1.9995
      vertex -14 14.743 -0.000499725
    endloop
  endfacet
  facet normal -0.481784 0.66336 -0.572572
    outer loop
      vertex -15 15.743 1.9995
      vertex -14.3383 14.4973 -0.000499725
      vertex -15.3383 15.4973 1.9995
    endloop
  endfacet
  facet normal 0.607197 0.546438 -0.576817
    outer loop
      vertex 15.618 15.1865 1.9995
      vertex 14.3383 14.4973 -0.000499725
      vertex 15.3383 15.4973 1.9995
    endloop
  endfacet
  facet normal 0.607197 0.546438 -0.576817
    outer loop
      vertex 14.3383 14.4973 -0.000499725
      vertex 15.618 15.1865 1.9995
      vertex 14.618 14.1865 -0.000499725
    endloop
  endfacet
  facet normal 0.715095 0.412942 -0.564019
    outer loop
      vertex 15.8271 14.8244 1.9995
      vertex 14.618 14.1865 -0.000499725
      vertex 15.618 15.1865 1.9995
    endloop
  endfacet
  facet normal 0.715095 0.412942 -0.564019
    outer loop
      vertex 14.618 14.1865 -0.000499725
      vertex 15.8271 14.8244 1.9995
      vertex 14.8271 13.8244 -0.000499725
    endloop
  endfacet
  facet normal 0.33948 0.762383 -0.550932
    outer loop
      vertex 14 14.743 -0.000499725
      vertex 14.618 15.9131 1.9995
      vertex 15 15.743 1.9995
    endloop
  endfacet
  facet normal 0.33948 0.762383 -0.550932
    outer loop
      vertex 14.618 15.9131 1.9995
      vertex 14 14.743 -0.000499725
      vertex 13.618 14.9131 -0.000499725
    endloop
  endfacet
  facet normal 0.871592 -0.0916031 -0.481598
    outer loop
      vertex 16 -14.011 1.9995
      vertex 14.9563 -13.4268 -0.000499725
      vertex 15 -13.011 -0.000499725
    endloop
  endfacet
  facet normal 0.871592 -0.0916031 -0.481598
    outer loop
      vertex 14.9563 -13.4268 -0.000499725
      vertex 16 -14.011 1.9995
      vertex 15.9563 -14.4268 1.9995
    endloop
  endfacet
  facet normal 0.607197 -0.546438 -0.576817
    outer loop
      vertex 15.618 -15.1865 1.9995
      vertex 14.3383 -14.4973 -0.000499725
      vertex 14.618 -14.1865 -0.000499725
    endloop
  endfacet
  facet normal 0.607197 -0.546438 -0.576817
    outer loop
      vertex 14.3383 -14.4973 -0.000499725
      vertex 15.618 -15.1865 1.9995
      vertex 15.3383 -15.4973 1.9995
    endloop
  endfacet
  facet normal 0.406782 -0.913525 0
    outer loop
      vertex 14.618 -15.9131 1.9995
      vertex 15 -15.743 3.2005
      vertex 14.618 -15.9131 3.2005
    endloop
  endfacet
  facet normal 0.406782 -0.913525 0
    outer loop
      vertex 15 -15.743 3.2005
      vertex 14.618 -15.9131 1.9995
      vertex 15 -15.743 1.9995
    endloop
  endfacet
  facet normal 0.587645 -0.809119 0
    outer loop
      vertex 15 -15.743 1.9995
      vertex 15.3383 -15.4973 3.2005
      vertex 15 -15.743 3.2005
    endloop
  endfacet
  facet normal 0.587645 -0.809119 0
    outer loop
      vertex 15.3383 -15.4973 3.2005
      vertex 15 -15.743 1.9995
      vertex 15.3383 -15.4973 1.9995
    endloop
  endfacet
  facet normal -0.804657 0.261473 -0.533065
    outer loop
      vertex -14.8271 13.8244 -0.000499725
      vertex -15.9563 14.4268 1.9995
      vertex -15.8271 14.8244 1.9995
    endloop
  endfacet
  facet normal -0.804657 0.261473 -0.533065
    outer loop
      vertex -15.9563 14.4268 1.9995
      vertex -14.8271 13.8244 -0.000499725
      vertex -14.9563 13.4268 -0.000499725
    endloop
  endfacet
  facet normal -0.871592 0.0916031 -0.481598
    outer loop
      vertex -14.9563 13.4268 -0.000499725
      vertex -16 14.011 1.9995
      vertex -15.9563 14.4268 1.9995
    endloop
  endfacet
  facet normal -0.871592 0.0916031 -0.481598
    outer loop
      vertex -16 14.011 1.9995
      vertex -14.9563 13.4268 -0.000499725
      vertex -15 13.011 -0.000499725
    endloop
  endfacet
  facet normal 0.178763 0.841358 -0.51006
    outer loop
      vertex 13.618 14.9131 -0.000499725
      vertex 14.209 16 1.9995
      vertex 14.618 15.9131 1.9995
    endloop
  endfacet
  facet normal 0.178763 0.841358 -0.51006
    outer loop
      vertex 14.209 16 1.9995
      vertex 13.618 14.9131 -0.000499725
      vertex 13.209 15 -0.000499725
    endloop
  endfacet
  facet normal 0.481784 -0.66336 -0.572572
    outer loop
      vertex 14.3383 -14.4973 -0.000499725
      vertex 15 -15.743 1.9995
      vertex 14 -14.743 -0.000499725
    endloop
  endfacet
  facet normal 0.481784 -0.66336 -0.572572
    outer loop
      vertex 15 -15.743 1.9995
      vertex 14.3383 -14.4973 -0.000499725
      vertex 15.3383 -15.4973 1.9995
    endloop
  endfacet
  facet normal 0.33948 -0.762383 -0.550932
    outer loop
      vertex 14 -14.743 -0.000499725
      vertex 14.618 -15.9131 1.9995
      vertex 13.618 -14.9131 -0.000499725
    endloop
  endfacet
  facet normal 0.33948 -0.762383 -0.550932
    outer loop
      vertex 14.618 -15.9131 1.9995
      vertex 14 -14.743 -0.000499725
      vertex 15 -15.743 1.9995
    endloop
  endfacet
  facet normal 0.804657 -0.261473 -0.533065
    outer loop
      vertex 15.9563 -14.4268 1.9995
      vertex 14.8271 -13.8244 -0.000499725
      vertex 14.9563 -13.4268 -0.000499725
    endloop
  endfacet
  facet normal 0.804657 -0.261473 -0.533065
    outer loop
      vertex 14.8271 -13.8244 -0.000499725
      vertex 15.9563 -14.4268 1.9995
      vertex 15.8271 -14.8244 1.9995
    endloop
  endfacet
  facet normal 0 -1 0
    outer loop
      vertex -13.6045 14.5 -0.000499725
      vertex 13.6045 14.5 1.5
      vertex -13.6045 14.5 1.5
    endloop
  endfacet
  facet normal 0 -1 -0
    outer loop
      vertex 13.6045 14.5 1.5
      vertex -13.6045 14.5 -0.000499725
      vertex 13.6045 14.5 -0.000499725
    endloop
  endfacet
  facet normal 0.208059 -0.978116 0
    outer loop
      vertex -13.809 14.4565 -0.000499725
      vertex -13.6045 14.5 1.5
      vertex -13.809 14.4565 1.5
    endloop
  endfacet
  facet normal 0.208059 -0.978116 0
    outer loop
      vertex -13.6045 14.5 1.5
      vertex -13.809 14.4565 -0.000499725
      vertex -13.6045 14.5 -0.000499725
    endloop
  endfacet
  facet normal 0.406582 -0.913614 0
    outer loop
      vertex -14 14.3715 -0.000499725
      vertex -13.809 14.4565 1.5
      vertex -14 14.3715 1.5
    endloop
  endfacet
  facet normal 0.406582 -0.913614 0
    outer loop
      vertex -13.809 14.4565 1.5
      vertex -14 14.3715 -0.000499725
      vertex -13.809 14.4565 -0.000499725
    endloop
  endfacet
  facet normal -0.208059 0.978116 0
    outer loop
      vertex 13.809 -14.4565 -0.000499725
      vertex 13.6045 -14.5 1.5
      vertex 13.809 -14.4565 1.5
    endloop
  endfacet
  facet normal -0.208059 0.978116 0
    outer loop
      vertex 13.6045 -14.5 1.5
      vertex 13.809 -14.4565 -0.000499725
      vertex 13.6045 -14.5 -0.000499725
    endloop
  endfacet
  facet normal -0.406582 -0.913614 0
    outer loop
      vertex 13.809 14.4565 -0.000499725
      vertex 14 14.3715 1.5
      vertex 13.809 14.4565 1.5
    endloop
  endfacet
  facet normal -0.406582 -0.913614 -0
    outer loop
      vertex 14 14.3715 1.5
      vertex 13.809 14.4565 -0.000499725
      vertex 14 14.3715 -0.000499725
    endloop
  endfacet
  facet normal 0.208059 0.978116 -0
    outer loop
      vertex -13.6045 -14.5 -0.000499725
      vertex -13.809 -14.4565 1.5
      vertex -13.6045 -14.5 1.5
    endloop
  endfacet
  facet normal 0.208059 0.978116 0
    outer loop
      vertex -13.809 -14.4565 1.5
      vertex -13.6045 -14.5 -0.000499725
      vertex -13.809 -14.4565 -0.000499725
    endloop
  endfacet
  facet normal -0.742985 0.669308 0
    outer loop
      vertex 14.1691 -14.2486 -0.000499725
      vertex 14.309 -14.0933 1.5
      vertex 14.309 -14.0933 -0.000499725
    endloop
  endfacet
  facet normal -0.742985 0.669308 0
    outer loop
      vertex 14.309 -14.0933 1.5
      vertex 14.1691 -14.2486 -0.000499725
      vertex 14.1691 -14.2486 1.5
    endloop
  endfacet
  facet normal -1 0 0
    outer loop
      vertex 14.5 -13.5055 -0.000499725
      vertex 14.5 13.5055 1.5
      vertex 14.5 13.5055 -0.000499725
    endloop
  endfacet
  facet normal -1 -0 0
    outer loop
      vertex 14.5 13.5055 1.5
      vertex 14.5 -13.5055 -0.000499725
      vertex 14.5 -13.5055 1.5
    endloop
  endfacet
  facet normal -0.208059 -0.978116 0
    outer loop
      vertex 13.6045 14.5 -0.000499725
      vertex 13.809 14.4565 1.5
      vertex 13.6045 14.5 1.5
    endloop
  endfacet
  facet normal -0.208059 -0.978116 -0
    outer loop
      vertex 13.809 14.4565 1.5
      vertex 13.6045 14.5 -0.000499725
      vertex 13.809 14.4565 -0.000499725
    endloop
  endfacet
  facet normal 0 1 -0
    outer loop
      vertex 13.6045 -14.5 -0.000499725
      vertex -13.6045 -14.5 1.5
      vertex 13.6045 -14.5 1.5
    endloop
  endfacet
  facet normal 0 1 0
    outer loop
      vertex -13.6045 -14.5 1.5
      vertex 13.6045 -14.5 -0.000499725
      vertex -13.6045 -14.5 -0.000499725
    endloop
  endfacet
  facet normal -0.994498 -0.104759 0
    outer loop
      vertex 14.5 13.5055 -0.000499725
      vertex 14.4781 13.7134 1.5
      vertex 14.4781 13.7134 -0.000499725
    endloop
  endfacet
  facet normal -0.994498 -0.104759 0
    outer loop
      vertex 14.4781 13.7134 1.5
      vertex 14.5 13.5055 -0.000499725
      vertex 14.5 13.5055 1.5
    endloop
  endfacet
  facet normal -0.587916 -0.808922 0
    outer loop
      vertex 14 14.3715 -0.000499725
      vertex 14.1691 14.2486 1.5
      vertex 14 14.3715 1.5
    endloop
  endfacet
  facet normal -0.587916 -0.808922 -0
    outer loop
      vertex 14.1691 14.2486 1.5
      vertex 14 14.3715 -0.000499725
      vertex 14.1691 14.2486 -0.000499725
    endloop
  endfacet
  facet normal 0.742985 0.669308 0
    outer loop
      vertex -14.1691 -14.2486 1.5
      vertex -14.309 -14.0933 -0.000499725
      vertex -14.309 -14.0933 1.5
    endloop
  endfacet
  facet normal 0.742985 0.669308 0
    outer loop
      vertex -14.309 -14.0933 -0.000499725
      vertex -14.1691 -14.2486 1.5
      vertex -14.1691 -14.2486 -0.000499725
    endloop
  endfacet
  facet normal 0.587916 0.808922 -0
    outer loop
      vertex -14 -14.3715 -0.000499725
      vertex -14.1691 -14.2486 1.5
      vertex -14 -14.3715 1.5
    endloop
  endfacet
  facet normal 0.587916 0.808922 0
    outer loop
      vertex -14.1691 -14.2486 1.5
      vertex -14 -14.3715 -0.000499725
      vertex -14.1691 -14.2486 -0.000499725
    endloop
  endfacet
  facet normal -0.951048 0.309043 0
    outer loop
      vertex 14.4135 -13.9122 -0.000499725
      vertex 14.4781 -13.7134 1.5
      vertex 14.4781 -13.7134 -0.000499725
    endloop
  endfacet
  facet normal -0.951048 0.309043 0
    outer loop
      vertex 14.4781 -13.7134 1.5
      vertex 14.4135 -13.9122 -0.000499725
      vertex 14.4135 -13.9122 1.5
    endloop
  endfacet
  facet normal 1 -0 0
    outer loop
      vertex -14.5 -13.5055 1.5
      vertex -14.5 13.5055 -0.000499725
      vertex -14.5 13.5055 1.5
    endloop
  endfacet
  facet normal 1 0 0
    outer loop
      vertex -14.5 13.5055 -0.000499725
      vertex -14.5 -13.5055 1.5
      vertex -14.5 -13.5055 -0.000499725
    endloop
  endfacet
  facet normal 0.406582 0.913614 -0
    outer loop
      vertex -13.809 -14.4565 -0.000499725
      vertex -14 -14.3715 1.5
      vertex -13.809 -14.4565 1.5
    endloop
  endfacet
  facet normal 0.406582 0.913614 0
    outer loop
      vertex -14 -14.3715 1.5
      vertex -13.809 -14.4565 -0.000499725
      vertex -14 -14.3715 -0.000499725
    endloop
  endfacet
  facet normal -0.994498 0.104759 0
    outer loop
      vertex 14.4781 -13.7134 -0.000499725
      vertex 14.5 -13.5055 1.5
      vertex 14.5 -13.5055 -0.000499725
    endloop
  endfacet
  facet normal -0.994498 0.104759 0
    outer loop
      vertex 14.5 -13.5055 1.5
      vertex 14.4781 -13.7134 -0.000499725
      vertex 14.4781 -13.7134 1.5
    endloop
  endfacet
  facet normal -0.587916 0.808922 0
    outer loop
      vertex 14.1691 -14.2486 -0.000499725
      vertex 14 -14.3715 1.5
      vertex 14.1691 -14.2486 1.5
    endloop
  endfacet
  facet normal -0.587916 0.808922 0
    outer loop
      vertex 14 -14.3715 1.5
      vertex 14.1691 -14.2486 -0.000499725
      vertex 14 -14.3715 -0.000499725
    endloop
  endfacet
  facet normal -0.406582 0.913614 0
    outer loop
      vertex 14 -14.3715 -0.000499725
      vertex 13.809 -14.4565 1.5
      vertex 14 -14.3715 1.5
    endloop
  endfacet
  facet normal -0.406582 0.913614 0
    outer loop
      vertex 13.809 -14.4565 1.5
      vertex 14 -14.3715 -0.000499725
      vertex 13.809 -14.4565 -0.000499725
    endloop
  endfacet
  facet normal -0.866146 -0.499791 0
    outer loop
      vertex 14.4135 13.9122 -0.000499725
      vertex 14.309 14.0933 1.5
      vertex 14.309 14.0933 -0.000499725
    endloop
  endfacet
  facet normal -0.866146 -0.499791 0
    outer loop
      vertex 14.309 14.0933 1.5
      vertex 14.4135 13.9122 -0.000499725
      vertex 14.4135 13.9122 1.5
    endloop
  endfacet
  facet normal -0.951048 -0.309043 0
    outer loop
      vertex 14.4781 13.7134 -0.000499725
      vertex 14.4135 13.9122 1.5
      vertex 14.4135 13.9122 -0.000499725
    endloop
  endfacet
  facet normal -0.951048 -0.309043 0
    outer loop
      vertex 14.4135 13.9122 1.5
      vertex 14.4781 13.7134 -0.000499725
      vertex 14.4781 13.7134 1.5
    endloop
  endfacet
  facet normal -0.742985 -0.669308 0
    outer loop
      vertex 14.309 14.0933 -0.000499725
      vertex 14.1691 14.2486 1.5
      vertex 14.1691 14.2486 -0.000499725
    endloop
  endfacet
  facet normal -0.742985 -0.669308 0
    outer loop
      vertex 14.1691 14.2486 1.5
      vertex 14.309 14.0933 -0.000499725
      vertex 14.309 14.0933 1.5
    endloop
  endfacet
  facet normal 0.866146 0.499791 0
    outer loop
      vertex -14.309 -14.0933 1.5
      vertex -14.4135 -13.9122 -0.000499725
      vertex -14.4135 -13.9122 1.5
    endloop
  endfacet
  facet normal 0.866146 0.499791 0
    outer loop
      vertex -14.4135 -13.9122 -0.000499725
      vertex -14.309 -14.0933 1.5
      vertex -14.309 -14.0933 -0.000499725
    endloop
  endfacet
  facet normal 0.994498 0.104759 0
    outer loop
      vertex -14.4781 -13.7134 1.5
      vertex -14.5 -13.5055 -0.000499725
      vertex -14.5 -13.5055 1.5
    endloop
  endfacet
  facet normal 0.994498 0.104759 0
    outer loop
      vertex -14.5 -13.5055 -0.000499725
      vertex -14.4781 -13.7134 1.5
      vertex -14.4781 -13.7134 -0.000499725
    endloop
  endfacet
  facet normal 0.951048 0.309043 0
    outer loop
      vertex -14.4135 -13.9122 1.5
      vertex -14.4781 -13.7134 -0.000499725
      vertex -14.4781 -13.7134 1.5
    endloop
  endfacet
  facet normal 0.951048 0.309043 0
    outer loop
      vertex -14.4781 -13.7134 -0.000499725
      vertex -14.4135 -13.9122 1.5
      vertex -14.4135 -13.9122 -0.000499725
    endloop
  endfacet
  facet normal 0.866146 -0.499791 0
    outer loop
      vertex -14.4135 13.9122 1.5
      vertex -14.309 14.0933 -0.000499725
      vertex -14.309 14.0933 1.5
    endloop
  endfacet
  facet normal 0.866146 -0.499791 0
    outer loop
      vertex -14.309 14.0933 -0.000499725
      vertex -14.4135 13.9122 1.5
      vertex -14.4135 13.9122 -0.000499725
    endloop
  endfacet
  facet normal 0.742985 -0.669308 0
    outer loop
      vertex -14.309 14.0933 1.5
      vertex -14.1691 14.2486 -0.000499725
      vertex -14.1691 14.2486 1.5
    endloop
  endfacet
  facet normal 0.742985 -0.669308 0
    outer loop
      vertex -14.1691 14.2486 -0.000499725
      vertex -14.309 14.0933 1.5
      vertex -14.309 14.0933 -0.000499725
    endloop
  endfacet
  facet normal 0.587916 -0.808922 0
    outer loop
      vertex -14.1691 14.2486 -0.000499725
      vertex -14 14.3715 1.5
      vertex -14.1691 14.2486 1.5
    endloop
  endfacet
  facet normal 0.587916 -0.808922 0
    outer loop
      vertex -14 14.3715 1.5
      vertex -14.1691 14.2486 -0.000499725
      vertex -14 14.3715 -0.000499725
    endloop
  endfacet
  facet normal -0.866146 0.499791 0
    outer loop
      vertex 14.309 -14.0933 -0.000499725
      vertex 14.4135 -13.9122 1.5
      vertex 14.4135 -13.9122 -0.000499725
    endloop
  endfacet
  facet normal -0.866146 0.499791 0
    outer loop
      vertex 14.4135 -13.9122 1.5
      vertex 14.309 -14.0933 -0.000499725
      vertex 14.309 -14.0933 1.5
    endloop
  endfacet
  facet normal 0.994498 -0.104759 0
    outer loop
      vertex -14.5 13.5055 1.5
      vertex -14.4781 13.7134 -0.000499725
      vertex -14.4781 13.7134 1.5
    endloop
  endfacet
  facet normal 0.994498 -0.104759 0
    outer loop
      vertex -14.4781 13.7134 -0.000499725
      vertex -14.5 13.5055 1.5
      vertex -14.5 13.5055 -0.000499725
    endloop
  endfacet
  facet normal 0.951048 -0.309043 0
    outer loop
      vertex -14.4781 13.7134 1.5
      vertex -14.4135 13.9122 -0.000499725
      vertex -14.4135 13.9122 1.5
    endloop
  endfacet
  facet normal 0.951048 -0.309043 0
    outer loop
      vertex -14.4135 13.9122 -0.000499725
      vertex -14.4781 13.7134 1.5
      vertex -14.4781 13.7134 -0.000499725
    endloop
  endfacet
  facet normal 0 -1 0
    outer loop
      vertex -13.609 15.4 1.5
      vertex 13.609 15.4 3.2005
      vertex -13.609 15.4 3.2005
    endloop
  endfacet
  facet normal 0 -1 -0
    outer loop
      vertex 13.609 15.4 3.2005
      vertex -13.609 15.4 1.5
      vertex 13.609 15.4 1.5
    endloop
  endfacet
  facet normal 0.20783 -0.978165 0
    outer loop
      vertex -14.018 15.3131 1.5
      vertex -13.609 15.4 3.2005
      vertex -14.018 15.3131 3.2005
    endloop
  endfacet
  facet normal 0.20783 -0.978165 0
    outer loop
      vertex -13.609 15.4 3.2005
      vertex -14.018 15.3131 1.5
      vertex -13.609 15.4 1.5
    endloop
  endfacet
  facet normal 0.406782 -0.913525 0
    outer loop
      vertex -14.4 15.143 1.5
      vertex -14.018 15.3131 3.2005
      vertex -14.4 15.143 3.2005
    endloop
  endfacet
  facet normal 0.406782 -0.913525 0
    outer loop
      vertex -14.018 15.3131 3.2005
      vertex -14.4 15.143 1.5
      vertex -14.018 15.3131 1.5
    endloop
  endfacet
  facet normal -0.20783 0.978165 0
    outer loop
      vertex 14.018 -15.3131 1.5
      vertex 13.609 -15.4 3.2005
      vertex 14.018 -15.3131 3.2005
    endloop
  endfacet
  facet normal -0.20783 0.978165 0
    outer loop
      vertex 13.609 -15.4 3.2005
      vertex 14.018 -15.3131 1.5
      vertex 13.609 -15.4 1.5
    endloop
  endfacet
  facet normal -0.587802 -0.809005 0
    outer loop
      vertex 14.4 15.143 1.5
      vertex 14.7383 14.8972 3.2005
      vertex 14.4 15.143 3.2005
    endloop
  endfacet
  facet normal -0.587802 -0.809005 -0
    outer loop
      vertex 14.7383 14.8972 3.2005
      vertex 14.4 15.143 1.5
      vertex 14.7383 14.8972 1.5
    endloop
  endfacet
  facet normal 0.587802 0.809005 -0
    outer loop
      vertex -14.4 -15.143 1.5
      vertex -14.7383 -14.8972 3.2005
      vertex -14.4 -15.143 3.2005
    endloop
  endfacet
  facet normal 0.587802 0.809005 0
    outer loop
      vertex -14.7383 -14.8972 3.2005
      vertex -14.4 -15.143 1.5
      vertex -14.7383 -14.8972 1.5
    endloop
  endfacet
  facet normal 0.743211 0.669057 0
    outer loop
      vertex -14.7383 -14.8972 3.2005
      vertex -15.018 -14.5865 1.5
      vertex -15.018 -14.5865 3.2005
    endloop
  endfacet
  facet normal 0.743211 0.669057 0
    outer loop
      vertex -15.018 -14.5865 1.5
      vertex -14.7383 -14.8972 3.2005
      vertex -14.7383 -14.8972 1.5
    endloop
  endfacet
  facet normal -0.865982 0.500074 0
    outer loop
      vertex 15.018 -14.5865 1.5
      vertex 15.2271 -14.2244 3.2005
      vertex 15.2271 -14.2244 1.5
    endloop
  endfacet
  facet normal -0.865982 0.500074 0
    outer loop
      vertex 15.2271 -14.2244 3.2005
      vertex 15.018 -14.5865 1.5
      vertex 15.018 -14.5865 3.2005
    endloop
  endfacet
  facet normal -0.743211 0.669057 0
    outer loop
      vertex 14.7383 -14.8972 1.5
      vertex 15.018 -14.5865 3.2005
      vertex 15.018 -14.5865 1.5
    endloop
  endfacet
  facet normal -0.743211 0.669057 0
    outer loop
      vertex 15.018 -14.5865 3.2005
      vertex 14.7383 -14.8972 1.5
      vertex 14.7383 -14.8972 3.2005
    endloop
  endfacet
  facet normal -1 0 0
    outer loop
      vertex 15.4 -13.411 1.5
      vertex 15.4 13.411 3.2005
      vertex 15.4 13.411 1.5
    endloop
  endfacet
  facet normal -1 -0 0
    outer loop
      vertex 15.4 13.411 3.2005
      vertex 15.4 -13.411 1.5
      vertex 15.4 -13.411 3.2005
    endloop
  endfacet
  facet normal -0.20783 -0.978165 0
    outer loop
      vertex 13.609 15.4 1.5
      vertex 14.018 15.3131 3.2005
      vertex 13.609 15.4 3.2005
    endloop
  endfacet
  facet normal -0.20783 -0.978165 -0
    outer loop
      vertex 14.018 15.3131 3.2005
      vertex 13.609 15.4 1.5
      vertex 14.018 15.3131 1.5
    endloop
  endfacet
  facet normal 1 -0 0
    outer loop
      vertex -15.4 -13.411 3.2005
      vertex -15.4 13.411 1.5
      vertex -15.4 13.411 3.2005
    endloop
  endfacet
  facet normal 1 0 0
    outer loop
      vertex -15.4 13.411 1.5
      vertex -15.4 -13.411 3.2005
      vertex -15.4 -13.411 1.5
    endloop
  endfacet
  facet normal -0.406782 0.913525 0
    outer loop
      vertex 14.4 -15.143 1.5
      vertex 14.018 -15.3131 3.2005
      vertex 14.4 -15.143 3.2005
    endloop
  endfacet
  facet normal -0.406782 0.913525 0
    outer loop
      vertex 14.018 -15.3131 3.2005
      vertex 14.4 -15.143 1.5
      vertex 14.018 -15.3131 1.5
    endloop
  endfacet
  facet normal -0.406782 -0.913525 0
    outer loop
      vertex 14.018 15.3131 1.5
      vertex 14.4 15.143 3.2005
      vertex 14.018 15.3131 3.2005
    endloop
  endfacet
  facet normal -0.406782 -0.913525 -0
    outer loop
      vertex 14.4 15.143 3.2005
      vertex 14.018 15.3131 1.5
      vertex 14.4 15.143 1.5
    endloop
  endfacet
  facet normal -0.743211 -0.669057 0
    outer loop
      vertex 15.018 14.5865 1.5
      vertex 14.7383 14.8972 3.2005
      vertex 14.7383 14.8972 1.5
    endloop
  endfacet
  facet normal -0.743211 -0.669057 0
    outer loop
      vertex 14.7383 14.8972 3.2005
      vertex 15.018 14.5865 1.5
      vertex 15.018 14.5865 3.2005
    endloop
  endfacet
  facet normal 0 1 -0
    outer loop
      vertex 13.609 -15.4 1.5
      vertex -13.609 -15.4 3.2005
      vertex 13.609 -15.4 3.2005
    endloop
  endfacet
  facet normal 0 1 0
    outer loop
      vertex -13.609 -15.4 3.2005
      vertex 13.609 -15.4 1.5
      vertex -13.609 -15.4 1.5
    endloop
  endfacet
  facet normal -0.994522 0.104523 0
    outer loop
      vertex 15.3563 -13.8268 1.5
      vertex 15.4 -13.411 3.2005
      vertex 15.4 -13.411 1.5
    endloop
  endfacet
  facet normal -0.994522 0.104523 0
    outer loop
      vertex 15.4 -13.411 3.2005
      vertex 15.3563 -13.8268 1.5
      vertex 15.3563 -13.8268 3.2005
    endloop
  endfacet
  facet normal -0.951048 0.309043 0
    outer loop
      vertex 15.2271 -14.2244 1.5
      vertex 15.3563 -13.8268 3.2005
      vertex 15.3563 -13.8268 1.5
    endloop
  endfacet
  facet normal -0.951048 0.309043 0
    outer loop
      vertex 15.3563 -13.8268 3.2005
      vertex 15.2271 -14.2244 1.5
      vertex 15.2271 -14.2244 3.2005
    endloop
  endfacet
  facet normal -0.865982 -0.500074 0
    outer loop
      vertex 15.2271 14.2244 1.5
      vertex 15.018 14.5865 3.2005
      vertex 15.018 14.5865 1.5
    endloop
  endfacet
  facet normal -0.865982 -0.500074 0
    outer loop
      vertex 15.018 14.5865 3.2005
      vertex 15.2271 14.2244 1.5
      vertex 15.2271 14.2244 3.2005
    endloop
  endfacet
  facet normal 0.406782 0.913525 -0
    outer loop
      vertex -14.018 -15.3131 1.5
      vertex -14.4 -15.143 3.2005
      vertex -14.018 -15.3131 3.2005
    endloop
  endfacet
  facet normal 0.406782 0.913525 0
    outer loop
      vertex -14.4 -15.143 3.2005
      vertex -14.018 -15.3131 1.5
      vertex -14.4 -15.143 1.5
    endloop
  endfacet
  facet normal -0.587802 0.809005 0
    outer loop
      vertex 14.7383 -14.8972 1.5
      vertex 14.4 -15.143 3.2005
      vertex 14.7383 -14.8972 3.2005
    endloop
  endfacet
  facet normal -0.587802 0.809005 0
    outer loop
      vertex 14.4 -15.143 3.2005
      vertex 14.7383 -14.8972 1.5
      vertex 14.4 -15.143 1.5
    endloop
  endfacet
  facet normal 0.865982 0.500074 0
    outer loop
      vertex -15.018 -14.5865 3.2005
      vertex -15.2271 -14.2244 1.5
      vertex -15.2271 -14.2244 3.2005
    endloop
  endfacet
  facet normal 0.865982 0.500074 0
    outer loop
      vertex -15.2271 -14.2244 1.5
      vertex -15.018 -14.5865 3.2005
      vertex -15.018 -14.5865 1.5
    endloop
  endfacet
  facet normal 0.994522 -0.104523 0
    outer loop
      vertex -15.4 13.411 3.2005
      vertex -15.3563 13.8268 1.5
      vertex -15.3563 13.8268 3.2005
    endloop
  endfacet
  facet normal 0.994522 -0.104523 0
    outer loop
      vertex -15.3563 13.8268 1.5
      vertex -15.4 13.411 3.2005
      vertex -15.4 13.411 1.5
    endloop
  endfacet
  facet normal -0 0 1
    outer loop
      vertex 14.5 13.5055 1.5
      vertex 15.4 13.411 1.5
      vertex 15.3563 13.8268 1.5
    endloop
  endfacet
  facet normal 0 0 1
    outer loop
      vertex 15.4 13.411 1.5
      vertex 14.5 13.5055 1.5
      vertex 15.4 -13.411 1.5
    endloop
  endfacet
  facet normal 0 0 1
    outer loop
      vertex 14.4781 13.7134 1.5
      vertex 15.3563 13.8268 1.5
      vertex 15.2271 14.2244 1.5
    endloop
  endfacet
  facet normal 0 0 1
    outer loop
      vertex 14.5 -13.5055 1.5
      vertex 15.4 -13.411 1.5
      vertex 14.5 13.5055 1.5
    endloop
  endfacet
  facet normal 0 0 1
    outer loop
      vertex 14.4135 13.9122 1.5
      vertex 15.2271 14.2244 1.5
      vertex 15.018 14.5865 1.5
    endloop
  endfacet
  facet normal 0 0 1
    outer loop
      vertex 15.4 -13.411 1.5
      vertex 14.5 -13.5055 1.5
      vertex 15.3563 -13.8268 1.5
    endloop
  endfacet
  facet normal 0 0 1
    outer loop
      vertex 14.309 14.0933 1.5
      vertex 15.018 14.5865 1.5
      vertex 14.7383 14.8972 1.5
    endloop
  endfacet
  facet normal -0 0 1
    outer loop
      vertex 14.4781 -13.7134 1.5
      vertex 15.3563 -13.8268 1.5
      vertex 14.5 -13.5055 1.5
    endloop
  endfacet
  facet normal 0 0 1
    outer loop
      vertex 15.3563 -13.8268 1.5
      vertex 14.4781 -13.7134 1.5
      vertex 15.2271 -14.2244 1.5
    endloop
  endfacet
  facet normal 0 0 1
    outer loop
      vertex 15.3563 13.8268 1.5
      vertex 14.4781 13.7134 1.5
      vertex 14.5 13.5055 1.5
    endloop
  endfacet
  facet normal 0 0 1
    outer loop
      vertex 15.2271 14.2244 1.5
      vertex 14.4135 13.9122 1.5
      vertex 14.4781 13.7134 1.5
    endloop
  endfacet
  facet normal 0 0 1
    outer loop
      vertex 14 14.3715 1.5
      vertex 14.7383 14.8972 1.5
      vertex 14.4 15.143 1.5
    endloop
  endfacet
  facet normal 0 0 1
    outer loop
      vertex 15.018 14.5865 1.5
      vertex 14.309 14.0933 1.5
      vertex 14.4135 13.9122 1.5
    endloop
  endfacet
  facet normal 0 0 1
    outer loop
      vertex 14.7383 14.8972 1.5
      vertex 14.1691 14.2486 1.5
      vertex 14.309 14.0933 1.5
    endloop
  endfacet
  facet normal 0 0 1
    outer loop
      vertex 13.809 14.4565 1.5
      vertex 14.4 15.143 1.5
      vertex 14.018 15.3131 1.5
    endloop
  endfacet
  facet normal 0 0 1
    outer loop
      vertex 14.7383 14.8972 1.5
      vertex 14 14.3715 1.5
      vertex 14.1691 14.2486 1.5
    endloop
  endfacet
  facet normal 0 0 1
    outer loop
      vertex 14.4 15.143 1.5
      vertex 13.809 14.4565 1.5
      vertex 14 14.3715 1.5
    endloop
  endfacet
  facet normal 0 0 1
    outer loop
      vertex 13.6045 14.5 1.5
      vertex 14.018 15.3131 1.5
      vertex 13.609 15.4 1.5
    endloop
  endfacet
  facet normal 0 0 1
    outer loop
      vertex 14.018 15.3131 1.5
      vertex 13.6045 14.5 1.5
      vertex 13.809 14.4565 1.5
    endloop
  endfacet
  facet normal 0 0 1
    outer loop
      vertex 13.609 15.4 1.5
      vertex -13.6045 14.5 1.5
      vertex 13.6045 14.5 1.5
    endloop
  endfacet
  facet normal -0 0 1
    outer loop
      vertex -13.609 15.4 1.5
      vertex -13.6045 14.5 1.5
      vertex 13.609 15.4 1.5
    endloop
  endfacet
  facet normal -0 0 1
    outer loop
      vertex -14.018 15.3131 1.5
      vertex -13.6045 14.5 1.5
      vertex -13.609 15.4 1.5
    endloop
  endfacet
  facet normal 0 0 1
    outer loop
      vertex -13.6045 14.5 1.5
      vertex -14.018 15.3131 1.5
      vertex -13.809 14.4565 1.5
    endloop
  endfacet
  facet normal -0 0 1
    outer loop
      vertex -14.4 15.143 1.5
      vertex -13.809 14.4565 1.5
      vertex -14.018 15.3131 1.5
    endloop
  endfacet
  facet normal 0 0 1
    outer loop
      vertex -13.809 14.4565 1.5
      vertex -14.4 15.143 1.5
      vertex -14 14.3715 1.5
    endloop
  endfacet
  facet normal -0 0 1
    outer loop
      vertex -14.7383 14.8972 1.5
      vertex -14 14.3715 1.5
      vertex -14.4 15.143 1.5
    endloop
  endfacet
  facet normal 0 0 1
    outer loop
      vertex -14 14.3715 1.5
      vertex -14.7383 14.8972 1.5
      vertex -14.1691 14.2486 1.5
    endloop
  endfacet
  facet normal 0 0 1
    outer loop
      vertex -14.1691 14.2486 1.5
      vertex -14.7383 14.8972 1.5
      vertex -14.309 14.0933 1.5
    endloop
  endfacet
  facet normal -0 0 1
    outer loop
      vertex -15.018 14.5865 1.5
      vertex -14.309 14.0933 1.5
      vertex -14.7383 14.8972 1.5
    endloop
  endfacet
  facet normal 0 0 1
    outer loop
      vertex -14.309 14.0933 1.5
      vertex -15.018 14.5865 1.5
      vertex -14.4135 13.9122 1.5
    endloop
  endfacet
  facet normal 0 0 1
    outer loop
      vertex -14.4135 13.9122 1.5
      vertex -15.2271 14.2244 1.5
      vertex -14.4781 13.7134 1.5
    endloop
  endfacet
  facet normal -0 0 1
    outer loop
      vertex -15.2271 14.2244 1.5
      vertex -14.4135 13.9122 1.5
      vertex -15.018 14.5865 1.5
    endloop
  endfacet
  facet normal -0 0 1
    outer loop
      vertex 14.4135 -13.9122 1.5
      vertex 15.2271 -14.2244 1.5
      vertex 14.4781 -13.7134 1.5
    endloop
  endfacet
  facet normal 0 0 1
    outer loop
      vertex 15.2271 -14.2244 1.5
      vertex 14.4135 -13.9122 1.5
      vertex 15.018 -14.5865 1.5
    endloop
  endfacet
  facet normal -0 0 1
    outer loop
      vertex 14.309 -14.0933 1.5
      vertex 15.018 -14.5865 1.5
      vertex 14.4135 -13.9122 1.5
    endloop
  endfacet
  facet normal 0 0 1
    outer loop
      vertex 15.018 -14.5865 1.5
      vertex 14.309 -14.0933 1.5
      vertex 14.7383 -14.8972 1.5
    endloop
  endfacet
  facet normal -0 0 1
    outer loop
      vertex 14.1691 -14.2486 1.5
      vertex 14.7383 -14.8972 1.5
      vertex 14.309 -14.0933 1.5
    endloop
  endfacet
  facet normal -0 0 1
    outer loop
      vertex 14 -14.3715 1.5
      vertex 14.7383 -14.8972 1.5
      vertex 14.1691 -14.2486 1.5
    endloop
  endfacet
  facet normal 0 0 1
    outer loop
      vertex 14.7383 -14.8972 1.5
      vertex 14 -14.3715 1.5
      vertex 14.4 -15.143 1.5
    endloop
  endfacet
  facet normal -0 0 1
    outer loop
      vertex 13.809 -14.4565 1.5
      vertex 14.4 -15.143 1.5
      vertex 14 -14.3715 1.5
    endloop
  endfacet
  facet normal 0 0 1
    outer loop
      vertex 14.4 -15.143 1.5
      vertex 13.809 -14.4565 1.5
      vertex 14.018 -15.3131 1.5
    endloop
  endfacet
  facet normal -0 0 1
    outer loop
      vertex 13.6045 -14.5 1.5
      vertex 14.018 -15.3131 1.5
      vertex 13.809 -14.4565 1.5
    endloop
  endfacet
  facet normal 0 0 1
    outer loop
      vertex 14.018 -15.3131 1.5
      vertex 13.6045 -14.5 1.5
      vertex 13.609 -15.4 1.5
    endloop
  endfacet
  facet normal -0 0 1
    outer loop
      vertex -13.6045 -14.5 1.5
      vertex 13.609 -15.4 1.5
      vertex 13.6045 -14.5 1.5
    endloop
  endfacet
  facet normal 0 0 1
    outer loop
      vertex -13.6045 -14.5 1.5
      vertex -13.609 -15.4 1.5
      vertex 13.609 -15.4 1.5
    endloop
  endfacet
  facet normal 0 0 1
    outer loop
      vertex -14.018 -15.3131 1.5
      vertex -13.6045 -14.5 1.5
      vertex -13.809 -14.4565 1.5
    endloop
  endfacet
  facet normal 0 0 1
    outer loop
      vertex -14.4 -15.143 1.5
      vertex -13.809 -14.4565 1.5
      vertex -14 -14.3715 1.5
    endloop
  endfacet
  facet normal 0 0 1
    outer loop
      vertex -13.6045 -14.5 1.5
      vertex -14.018 -15.3131 1.5
      vertex -13.609 -15.4 1.5
    endloop
  endfacet
  facet normal 0 0 1
    outer loop
      vertex -14.7383 -14.8972 1.5
      vertex -14 -14.3715 1.5
      vertex -14.1691 -14.2486 1.5
    endloop
  endfacet
  facet normal 0 0 1
    outer loop
      vertex -14.7383 -14.8972 1.5
      vertex -14.1691 -14.2486 1.5
      vertex -14.309 -14.0933 1.5
    endloop
  endfacet
  facet normal 0 0 1
    outer loop
      vertex -13.809 -14.4565 1.5
      vertex -14.4 -15.143 1.5
      vertex -14.018 -15.3131 1.5
    endloop
  endfacet
  facet normal 0 0 1
    outer loop
      vertex -15.018 -14.5865 1.5
      vertex -14.309 -14.0933 1.5
      vertex -14.4135 -13.9122 1.5
    endloop
  endfacet
  facet normal 0 0 1
    outer loop
      vertex -15.2271 -14.2244 1.5
      vertex -14.4135 -13.9122 1.5
      vertex -14.4781 -13.7134 1.5
    endloop
  endfacet
  facet normal 0 0 1
    outer loop
      vertex -15.3563 -13.8268 1.5
      vertex -14.4781 -13.7134 1.5
      vertex -14.5 -13.5055 1.5
    endloop
  endfacet
  facet normal 0 0 1
    outer loop
      vertex -14 -14.3715 1.5
      vertex -14.7383 -14.8972 1.5
      vertex -14.4 -15.143 1.5
    endloop
  endfacet
  facet normal 0 0 1
    outer loop
      vertex -14.5 13.5055 1.5
      vertex -15.4 13.411 1.5
      vertex -14.5 -13.5055 1.5
    endloop
  endfacet
  facet normal -0 0 1
    outer loop
      vertex -15.3563 13.8268 1.5
      vertex -14.4781 13.7134 1.5
      vertex -15.2271 14.2244 1.5
    endloop
  endfacet
  facet normal -0 0 1
    outer loop
      vertex -15.4 -13.411 1.5
      vertex -14.5 -13.5055 1.5
      vertex -15.4 13.411 1.5
    endloop
  endfacet
  facet normal 0 0 1
    outer loop
      vertex -14.4781 13.7134 1.5
      vertex -15.3563 13.8268 1.5
      vertex -14.5 13.5055 1.5
    endloop
  endfacet
  facet normal 0 -0 1
    outer loop
      vertex -15.3563 -13.8268 1.5
      vertex -14.5 -13.5055 1.5
      vertex -15.4 -13.411 1.5
    endloop
  endfacet
  facet normal 0 0 1
    outer loop
      vertex -14.5 13.5055 1.5
      vertex -15.3563 13.8268 1.5
      vertex -15.4 13.411 1.5
    endloop
  endfacet
  facet normal 0 0 1
    outer loop
      vertex -14.309 -14.0933 1.5
      vertex -15.018 -14.5865 1.5
      vertex -14.7383 -14.8972 1.5
    endloop
  endfacet
  facet normal 0 0 1
    outer loop
      vertex -14.4135 -13.9122 1.5
      vertex -15.2271 -14.2244 1.5
      vertex -15.018 -14.5865 1.5
    endloop
  endfacet
  facet normal 0 0 1
    outer loop
      vertex -14.4781 -13.7134 1.5
      vertex -15.3563 -13.8268 1.5
      vertex -15.2271 -14.2244 1.5
    endloop
  endfacet
  facet normal 0.20783 0.978165 -0
    outer loop
      vertex -13.609 -15.4 1.5
      vertex -14.018 -15.3131 3.2005
      vertex -13.609 -15.4 3.2005
    endloop
  endfacet
  facet normal 0.20783 0.978165 0
    outer loop
      vertex -14.018 -15.3131 3.2005
      vertex -13.609 -15.4 1.5
      vertex -14.018 -15.3131 1.5
    endloop
  endfacet
  facet normal -0.951048 -0.309043 0
    outer loop
      vertex 15.3563 13.8268 1.5
      vertex 15.2271 14.2244 3.2005
      vertex 15.2271 14.2244 1.5
    endloop
  endfacet
  facet normal -0.951048 -0.309043 0
    outer loop
      vertex 15.2271 14.2244 3.2005
      vertex 15.3563 13.8268 1.5
      vertex 15.3563 13.8268 3.2005
    endloop
  endfacet
  facet normal -0.994522 -0.104523 0
    outer loop
      vertex 15.4 13.411 1.5
      vertex 15.3563 13.8268 3.2005
      vertex 15.3563 13.8268 1.5
    endloop
  endfacet
  facet normal -0.994522 -0.104523 0
    outer loop
      vertex 15.3563 13.8268 3.2005
      vertex 15.4 13.411 1.5
      vertex 15.4 13.411 3.2005
    endloop
  endfacet
  facet normal 0.865982 -0.500074 0
    outer loop
      vertex -15.2271 14.2244 3.2005
      vertex -15.018 14.5865 1.5
      vertex -15.018 14.5865 3.2005
    endloop
  endfacet
  facet normal 0.865982 -0.500074 0
    outer loop
      vertex -15.018 14.5865 1.5
      vertex -15.2271 14.2244 3.2005
      vertex -15.2271 14.2244 1.5
    endloop
  endfacet
  facet normal 0.743211 -0.669057 0
    outer loop
      vertex -15.018 14.5865 3.2005
      vertex -14.7383 14.8972 1.5
      vertex -14.7383 14.8972 3.2005
    endloop
  endfacet
  facet normal 0.743211 -0.669057 0
    outer loop
      vertex -14.7383 14.8972 1.5
      vertex -15.018 14.5865 3.2005
      vertex -15.018 14.5865 1.5
    endloop
  endfacet
  facet normal 0.587802 -0.809005 0
    outer loop
      vertex -14.7383 14.8972 1.5
      vertex -14.4 15.143 3.2005
      vertex -14.7383 14.8972 3.2005
    endloop
  endfacet
  facet normal 0.587802 -0.809005 0
    outer loop
      vertex -14.4 15.143 3.2005
      vertex -14.7383 14.8972 1.5
      vertex -14.4 15.143 1.5
    endloop
  endfacet
  facet normal 0.951048 0.309043 0
    outer loop
      vertex -15.2271 -14.2244 3.2005
      vertex -15.3563 -13.8268 1.5
      vertex -15.3563 -13.8268 3.2005
    endloop
  endfacet
  facet normal 0.951048 0.309043 0
    outer loop
      vertex -15.3563 -13.8268 1.5
      vertex -15.2271 -14.2244 3.2005
      vertex -15.2271 -14.2244 1.5
    endloop
  endfacet
  facet normal 0.994522 0.104523 0
    outer loop
      vertex -15.3563 -13.8268 3.2005
      vertex -15.4 -13.411 1.5
      vertex -15.4 -13.411 3.2005
    endloop
  endfacet
  facet normal 0.994522 0.104523 0
    outer loop
      vertex -15.4 -13.411 1.5
      vertex -15.3563 -13.8268 3.2005
      vertex -15.3563 -13.8268 1.5
    endloop
  endfacet
  facet normal 0.951048 -0.309043 0
    outer loop
      vertex -15.3563 13.8268 3.2005
      vertex -15.2271 14.2244 1.5
      vertex -15.2271 14.2244 3.2005
    endloop
  endfacet
  facet normal 0.951048 -0.309043 0
    outer loop
      vertex -15.2271 14.2244 1.5
      vertex -15.3563 13.8268 3.2005
      vertex -15.3563 13.8268 1.5
    endloop
  endfacet
endsolid OpenSCAD_Model
